<mxfile host="app.diagrams.net" modified="2023-07-24T16:54:24.937Z" agent="Mozilla/5.0 (Macintosh; Intel Mac OS X 10_15_7) AppleWebKit/537.36 (KHTML, like Gecko) Chrome/114.0.0.0 Safari/537.36" etag="6uUu0N1u8axO446UOFj1" version="21.6.5" type="device">
  <diagram name="Page-1" id="_PcuShslwxGRxERNgqPv">
    <mxGraphModel dx="1306" dy="1798" grid="1" gridSize="10" guides="1" tooltips="1" connect="1" arrows="1" fold="1" page="1" pageScale="1" pageWidth="850" pageHeight="1100" math="0" shadow="0">
      <root>
        <mxCell id="0" />
        <mxCell id="1" parent="0" />
        <mxCell id="_0uGZLJ77H1l0h9HizpI-1" value="client&lt;br&gt;App/Web" style="rounded=0;whiteSpace=wrap;html=1;" parent="1" vertex="1">
          <mxGeometry x="40" y="100" width="120" height="60" as="geometry" />
        </mxCell>
        <mxCell id="_0uGZLJ77H1l0h9HizpI-2" value="Cf-api" style="rounded=0;whiteSpace=wrap;html=1;" parent="1" vertex="1">
          <mxGeometry x="250" y="100" width="120" height="60" as="geometry" />
        </mxCell>
        <mxCell id="_0uGZLJ77H1l0h9HizpI-3" value="" style="endArrow=classic;html=1;rounded=0;exitX=1;exitY=0.5;exitDx=0;exitDy=0;" parent="1" source="_0uGZLJ77H1l0h9HizpI-1" edge="1">
          <mxGeometry width="50" height="50" relative="1" as="geometry">
            <mxPoint x="200" y="180" as="sourcePoint" />
            <mxPoint x="250" y="130" as="targetPoint" />
          </mxGeometry>
        </mxCell>
        <mxCell id="_0uGZLJ77H1l0h9HizpI-4" value="OMS" style="rounded=0;whiteSpace=wrap;html=1;" parent="1" vertex="1">
          <mxGeometry x="450" y="100" width="120" height="60" as="geometry" />
        </mxCell>
        <mxCell id="_0uGZLJ77H1l0h9HizpI-5" value="" style="endArrow=classic;html=1;rounded=0;exitX=1;exitY=0.5;exitDx=0;exitDy=0;" parent="1" source="_0uGZLJ77H1l0h9HizpI-2" edge="1">
          <mxGeometry width="50" height="50" relative="1" as="geometry">
            <mxPoint x="400" y="180" as="sourcePoint" />
            <mxPoint x="450" y="130" as="targetPoint" />
          </mxGeometry>
        </mxCell>
        <mxCell id="_0uGZLJ77H1l0h9HizpI-6" value="CULT/GX" style="rounded=0;whiteSpace=wrap;html=1;" parent="1" vertex="1">
          <mxGeometry x="470" y="230" width="120" height="60" as="geometry" />
        </mxCell>
        <mxCell id="_0uGZLJ77H1l0h9HizpI-7" value="GYM" style="rounded=0;whiteSpace=wrap;html=1;" parent="1" vertex="1">
          <mxGeometry x="600" y="230" width="120" height="60" as="geometry" />
        </mxCell>
        <mxCell id="_0uGZLJ77H1l0h9HizpI-8" value="Transform" style="rounded=0;whiteSpace=wrap;html=1;" parent="1" vertex="1">
          <mxGeometry x="740" y="230" width="120" height="60" as="geometry" />
        </mxCell>
        <mxCell id="_0uGZLJ77H1l0h9HizpI-9" value="Live" style="rounded=0;whiteSpace=wrap;html=1;" parent="1" vertex="1">
          <mxGeometry x="330" y="230" width="120" height="60" as="geometry" />
        </mxCell>
        <mxCell id="_0uGZLJ77H1l0h9HizpI-10" value="" style="endArrow=classic;html=1;rounded=0;exitX=0.25;exitY=1;exitDx=0;exitDy=0;" parent="1" source="_0uGZLJ77H1l0h9HizpI-4" edge="1">
          <mxGeometry width="50" height="50" relative="1" as="geometry">
            <mxPoint x="460" y="220" as="sourcePoint" />
            <mxPoint x="410" y="220" as="targetPoint" />
          </mxGeometry>
        </mxCell>
        <mxCell id="_0uGZLJ77H1l0h9HizpI-11" value="" style="endArrow=classic;html=1;rounded=0;" parent="1" source="_0uGZLJ77H1l0h9HizpI-4" edge="1">
          <mxGeometry width="50" height="50" relative="1" as="geometry">
            <mxPoint x="510" y="210" as="sourcePoint" />
            <mxPoint x="510" y="230.71067811865476" as="targetPoint" />
          </mxGeometry>
        </mxCell>
        <mxCell id="_0uGZLJ77H1l0h9HizpI-12" value="" style="endArrow=classic;html=1;rounded=0;exitX=0.825;exitY=1.05;exitDx=0;exitDy=0;exitPerimeter=0;" parent="1" source="_0uGZLJ77H1l0h9HizpI-4" edge="1">
          <mxGeometry width="50" height="50" relative="1" as="geometry">
            <mxPoint x="600" y="270" as="sourcePoint" />
            <mxPoint x="650" y="220" as="targetPoint" />
          </mxGeometry>
        </mxCell>
        <mxCell id="_0uGZLJ77H1l0h9HizpI-13" value="" style="endArrow=classic;html=1;rounded=0;exitX=1;exitY=0.5;exitDx=0;exitDy=0;" parent="1" source="_0uGZLJ77H1l0h9HizpI-4" edge="1">
          <mxGeometry width="50" height="50" relative="1" as="geometry">
            <mxPoint x="640" y="160" as="sourcePoint" />
            <mxPoint x="810" y="220" as="targetPoint" />
          </mxGeometry>
        </mxCell>
        <mxCell id="_0uGZLJ77H1l0h9HizpI-14" value="Kronos/ Admin" style="rounded=0;whiteSpace=wrap;html=1;" parent="1" vertex="1">
          <mxGeometry x="470" y="390" width="120" height="60" as="geometry" />
        </mxCell>
        <mxCell id="_0uGZLJ77H1l0h9HizpI-15" value="Partner portal/Admin" style="rounded=0;whiteSpace=wrap;html=1;" parent="1" vertex="1">
          <mxGeometry x="620" y="390" width="120" height="60" as="geometry" />
        </mxCell>
        <mxCell id="_0uGZLJ77H1l0h9HizpI-16" value="" style="endArrow=classic;html=1;rounded=0;" parent="1" edge="1">
          <mxGeometry width="50" height="50" relative="1" as="geometry">
            <mxPoint x="520" y="380" as="sourcePoint" />
            <mxPoint x="530" y="300" as="targetPoint" />
          </mxGeometry>
        </mxCell>
        <mxCell id="_0uGZLJ77H1l0h9HizpI-17" value="" style="endArrow=classic;html=1;rounded=0;exitX=0.442;exitY=-0.05;exitDx=0;exitDy=0;exitPerimeter=0;" parent="1" source="_0uGZLJ77H1l0h9HizpI-15" edge="1">
          <mxGeometry width="50" height="50" relative="1" as="geometry">
            <mxPoint x="620" y="340" as="sourcePoint" />
            <mxPoint x="670" y="290" as="targetPoint" />
          </mxGeometry>
        </mxCell>
        <mxCell id="_0uGZLJ77H1l0h9HizpI-18" value="Catalog service" style="rounded=0;whiteSpace=wrap;html=1;" parent="1" vertex="1">
          <mxGeometry x="630" y="60" width="120" height="60" as="geometry" />
        </mxCell>
        <mxCell id="_0uGZLJ77H1l0h9HizpI-19" value="" style="endArrow=classic;html=1;rounded=0;exitX=1;exitY=0.15;exitDx=0;exitDy=0;exitPerimeter=0;" parent="1" source="_0uGZLJ77H1l0h9HizpI-4" edge="1">
          <mxGeometry width="50" height="50" relative="1" as="geometry">
            <mxPoint x="580" y="130" as="sourcePoint" />
            <mxPoint x="630" y="80" as="targetPoint" />
          </mxGeometry>
        </mxCell>
        <mxCell id="_0uGZLJ77H1l0h9HizpI-20" value="Membership service" style="rounded=0;whiteSpace=wrap;html=1;" parent="1" vertex="1">
          <mxGeometry x="170" y="320" width="120" height="60" as="geometry" />
        </mxCell>
        <mxCell id="_0uGZLJ77H1l0h9HizpI-21" value="" style="endArrow=classic;html=1;rounded=0;exitX=0.25;exitY=1;exitDx=0;exitDy=0;" parent="1" source="_0uGZLJ77H1l0h9HizpI-9" edge="1">
          <mxGeometry width="50" height="50" relative="1" as="geometry">
            <mxPoint x="360" y="380" as="sourcePoint" />
            <mxPoint x="300" y="330" as="targetPoint" />
          </mxGeometry>
        </mxCell>
        <mxCell id="_0uGZLJ77H1l0h9HizpI-22" value="" style="endArrow=classic;html=1;rounded=0;exitX=0.342;exitY=0.983;exitDx=0;exitDy=0;exitPerimeter=0;" parent="1" source="_0uGZLJ77H1l0h9HizpI-6" edge="1">
          <mxGeometry width="50" height="50" relative="1" as="geometry">
            <mxPoint x="400" y="370" as="sourcePoint" />
            <mxPoint x="300" y="340" as="targetPoint" />
          </mxGeometry>
        </mxCell>
        <mxCell id="_0uGZLJ77H1l0h9HizpI-23" value="" style="endArrow=classic;html=1;rounded=0;exitX=0.25;exitY=1;exitDx=0;exitDy=0;entryX=1;entryY=0.5;entryDx=0;entryDy=0;" parent="1" source="_0uGZLJ77H1l0h9HizpI-7" target="_0uGZLJ77H1l0h9HizpI-20" edge="1">
          <mxGeometry width="50" height="50" relative="1" as="geometry">
            <mxPoint x="610" y="360" as="sourcePoint" />
            <mxPoint x="660" y="310" as="targetPoint" />
          </mxGeometry>
        </mxCell>
        <mxCell id="_0uGZLJ77H1l0h9HizpI-24" value="" style="endArrow=classic;html=1;rounded=0;exitX=0.25;exitY=1;exitDx=0;exitDy=0;entryX=1;entryY=0.75;entryDx=0;entryDy=0;" parent="1" source="_0uGZLJ77H1l0h9HizpI-8" target="_0uGZLJ77H1l0h9HizpI-20" edge="1">
          <mxGeometry width="50" height="50" relative="1" as="geometry">
            <mxPoint x="780" y="370" as="sourcePoint" />
            <mxPoint x="830" y="320" as="targetPoint" />
          </mxGeometry>
        </mxCell>
        <mxCell id="_0uGZLJ77H1l0h9HizpI-25" value="center service" style="rounded=0;whiteSpace=wrap;html=1;" parent="1" vertex="1">
          <mxGeometry x="100" y="280" width="120" height="60" as="geometry" />
        </mxCell>
        <mxCell id="_0uGZLJ77H1l0h9HizpI-27" value="Neo/identity service" style="rounded=0;whiteSpace=wrap;html=1;" parent="1" vertex="1">
          <mxGeometry x="230" y="360" width="120" height="60" as="geometry" />
        </mxCell>
        <mxCell id="_0uGZLJ77H1l0h9HizpI-28" value="" style="endArrow=none;dashed=1;html=1;dashPattern=1 3;strokeWidth=2;rounded=0;" parent="1" edge="1">
          <mxGeometry width="50" height="50" relative="1" as="geometry">
            <mxPoint x="680" y="220" as="sourcePoint" />
            <mxPoint x="720" y="110" as="targetPoint" />
          </mxGeometry>
        </mxCell>
        <mxCell id="_0uGZLJ77H1l0h9HizpI-29" value="" style="endArrow=none;dashed=1;html=1;rounded=0;exitX=0.808;exitY=-0.083;exitDx=0;exitDy=0;exitPerimeter=0;" parent="1" source="_0uGZLJ77H1l0h9HizpI-6" edge="1">
          <mxGeometry width="50" height="50" relative="1" as="geometry">
            <mxPoint x="640" y="160" as="sourcePoint" />
            <mxPoint x="690" y="110" as="targetPoint" />
          </mxGeometry>
        </mxCell>
        <mxCell id="_0uGZLJ77H1l0h9HizpI-30" value="Cyclops" style="rounded=0;whiteSpace=wrap;html=1;" parent="1" vertex="1">
          <mxGeometry x="260" width="120" height="60" as="geometry" />
        </mxCell>
        <mxCell id="_0uGZLJ77H1l0h9HizpI-31" value="" style="endArrow=classic;html=1;rounded=0;entryX=0.567;entryY=1.05;entryDx=0;entryDy=0;entryPerimeter=0;exitX=0.6;exitY=-0.067;exitDx=0;exitDy=0;exitPerimeter=0;" parent="1" source="_0uGZLJ77H1l0h9HizpI-2" target="_0uGZLJ77H1l0h9HizpI-30" edge="1">
          <mxGeometry width="50" height="50" relative="1" as="geometry">
            <mxPoint x="310" y="110" as="sourcePoint" />
            <mxPoint x="360" y="60" as="targetPoint" />
          </mxGeometry>
        </mxCell>
        <mxCell id="_0uGZLJ77H1l0h9HizpI-32" value="Trainer services" style="rounded=0;whiteSpace=wrap;html=1;" parent="1" vertex="1">
          <mxGeometry x="220" y="450" width="120" height="60" as="geometry" />
        </mxCell>
        <mxCell id="_0uGZLJ77H1l0h9HizpI-33" value="" style="endArrow=classic;html=1;rounded=0;exitX=0.25;exitY=1;exitDx=0;exitDy=0;entryX=0.358;entryY=-0.067;entryDx=0;entryDy=0;entryPerimeter=0;" parent="1" source="_0uGZLJ77H1l0h9HizpI-27" target="_0uGZLJ77H1l0h9HizpI-32" edge="1">
          <mxGeometry width="50" height="50" relative="1" as="geometry">
            <mxPoint x="270" y="470" as="sourcePoint" />
            <mxPoint x="320" y="420" as="targetPoint" />
          </mxGeometry>
        </mxCell>
        <mxCell id="_0uGZLJ77H1l0h9HizpI-34" value="Trainer App" style="rounded=0;whiteSpace=wrap;html=1;" parent="1" vertex="1">
          <mxGeometry x="50" y="490" width="120" height="60" as="geometry" />
        </mxCell>
        <mxCell id="_0uGZLJ77H1l0h9HizpI-35" value="" style="endArrow=classic;html=1;rounded=0;exitX=1;exitY=0.75;exitDx=0;exitDy=0;" parent="1" source="_0uGZLJ77H1l0h9HizpI-34" edge="1">
          <mxGeometry width="50" height="50" relative="1" as="geometry">
            <mxPoint x="190" y="560" as="sourcePoint" />
            <mxPoint x="240" y="510" as="targetPoint" />
          </mxGeometry>
        </mxCell>
        <mxCell id="_0uGZLJ77H1l0h9HizpI-36" value="User service" style="rounded=0;whiteSpace=wrap;html=1;" parent="1" vertex="1">
          <mxGeometry x="425" width="120" height="60" as="geometry" />
        </mxCell>
        <mxCell id="_0uGZLJ77H1l0h9HizpI-37" value="" style="endArrow=classic;html=1;rounded=0;exitX=1;exitY=0;exitDx=0;exitDy=0;" parent="1" source="_0uGZLJ77H1l0h9HizpI-2" edge="1">
          <mxGeometry width="50" height="50" relative="1" as="geometry">
            <mxPoint x="390" y="110" as="sourcePoint" />
            <mxPoint x="440" y="60" as="targetPoint" />
          </mxGeometry>
        </mxCell>
        <mxCell id="_0uGZLJ77H1l0h9HizpI-38" value="offer service" style="rounded=1;whiteSpace=wrap;html=1;" parent="1" vertex="1">
          <mxGeometry x="570" y="-10" width="120" height="60" as="geometry" />
        </mxCell>
        <mxCell id="_0uGZLJ77H1l0h9HizpI-39" value="" style="endArrow=classic;html=1;rounded=0;" parent="1" edge="1">
          <mxGeometry width="50" height="50" relative="1" as="geometry">
            <mxPoint x="560" y="100" as="sourcePoint" />
            <mxPoint x="610" y="50" as="targetPoint" />
          </mxGeometry>
        </mxCell>
        <mxCell id="tkq5m0eafwAguoWgmqud-2" value="" style="endArrow=classic;html=1;rounded=0;exitX=0.442;exitY=1.042;exitDx=0;exitDy=0;exitPerimeter=0;" edge="1" parent="1" source="_0uGZLJ77H1l0h9HizpI-2">
          <mxGeometry width="50" height="50" relative="1" as="geometry">
            <mxPoint x="340" y="220" as="sourcePoint" />
            <mxPoint x="400" y="220" as="targetPoint" />
          </mxGeometry>
        </mxCell>
      </root>
    </mxGraphModel>
  </diagram>
</mxfile>
